<svg width="32" height="32" viewBox="0 0 32 32" fill="none" xmlns="http://www.w3.org/2000/svg">
  <rect width="32" height="32" rx="8" fill="#EF4444"/>
  <path d="M10 10C10 8.89543 10.8954 8 12 8C13.1046 8 14 8.89543 14 10V12H16V10C16 8.89543 16.8954 8 18 8C19.1046 8 20 8.89543 20 10V12H22V10C22 8.89543 22.8954 8 24 8V10C24 11.1046 23.1046 12 22 12V22C22 23.1046 21.1046 24 20 24H12C10.8954 24 10 23.1046 10 22V12C8.89543 12 8 11.1046 8 10V8C9.10457 8 10 8.89543 10 10Z" fill="white"/>
  <path d="M12 14H20V20H12V14Z" fill="#EF4444"/>
  <circle cx="14" cy="16" r="1" fill="white"/>
  <circle cx="18" cy="16" r="1" fill="white"/>
</svg>
