<svg width="32" height="32" viewBox="0 0 32 32" fill="none" xmlns="http://www.w3.org/2000/svg">
  <rect width="32" height="32" rx="8" fill="#25D366"/>
  <path d="M16 8C11.5817 8 8 11.5817 8 16C8 17.5 8.4 18.9 9.1 20.1L8 24L11.9 22.9C13.1 23.6 14.5 24 16 24C20.4183 24 24 20.4183 24 16C24 11.5817 20.4183 8 16 8Z" fill="white"/>
  <path d="M13.5 12.5C13.2 12.1 12.8 12 12.5 12.2C12.2 12.4 11.5 13 11.5 14C11.5 15 12.2 15.6 12.3 15.7C12.4 15.8 13.5 17.1 15.2 17.8C15.6 17.9 15.9 18 16.2 18C16.5 18 16.9 17.9 17.3 17.7C17.7 17.5 18.4 17 18.7 16.5C19 16 19 15.5 18.9 15.4C18.8 15.3 18.5 15.2 18.3 15.1C18.1 15 17.1 14.5 16.9 14.4C16.7 14.3 16.6 14.2 16.4 14.4C16.2 14.6 15.7 15.1 15.5 15.3C15.3 15.5 15.1 15.5 14.9 15.4C14.7 15.3 14.2 15.1 13.6 14.6C13.1 14.1 12.7 13.6 12.5 13.4C12.3 13.2 12.1 13.2 12 13.3C11.9 13.4 11.7 13.5 11.5 13.7C11.3 13.9 11 14.2 11.2 14.5C11.4 14.8 12 15.6 12.6 16.2C13.5 17.1 14.3 17.6 14.6 17.8C14.9 18 15.1 18 15.3 17.9C15.5 17.8 15.9 17.6 16.2 17.3C16.4 17.1 16.5 17 16.6 17.2C16.7 17.4 16.8 17.8 16.9 17.9C17 18 17 18.1 16.9 18.2C16.8 18.3 16.5 18.4 16.2 18.5C15.9 18.6 15.3 18.7 14.6 18.5C14 18.3 13.5 18.1 13 17.8C12.5 17.5 12.1 17.2 11.8 16.9C11.5 16.6 11.2 16.3 11 16C10.8 15.7 10.5 15.2 10.5 14.7C10.5 14.2 10.6 14 10.7 13.8C10.8 13.6 11 13.4 11.2 13.2C11.3 13.1 11.4 13 11.5 12.9C11.6 12.8 11.5 12.7 11.4 12.6C11.3 12.5 11 12.3 10.8 12.1C10.6 11.9 10.4 11.6 10.5 11.3C10.6 11 10.8 10.8 11 10.6C11.2 10.4 11.5 10.2 11.8 10.1C12.1 10 12.4 10 12.6 10.1C12.8 10.2 13 10.4 13.1 10.5C13.2 10.6 13.3 10.7 13.4 10.9C13.5 11.1 13.5 11.3 13.5 11.5C13.5 11.7 13.5 12 13.5 12.5Z" fill="#25D366"/>
</svg>
